<svg xmlns="http://www.w3.org/2000/svg" width="400" height="280" viewBox="0 0 400 280">
  <defs>
    <linearGradient id="gc" x1="0" y1="0" x2="1" y2="1">
      <stop offset="0%" stop-color="#fff4cf"/>
      <stop offset="100%" stop-color="#f8c94a"/>
    </linearGradient>
    <filter id="shadow" x="-20%" y="-20%" width="140%" height="140%">
      <feDropShadow dx="0" dy="10" stdDeviation="10" flood-color="#8a5a00" flood-opacity="0.18"/>
    </filter>
  </defs>
  <rect width="400" height="280" rx="20" fill="url(#gc)" stroke="#d4a017" stroke-width="4"/>
  <g filter="url(#shadow)">
    <rect x="28" y="28" width="344" height="224" rx="16" fill="#fffef8" stroke="#8d6e63" stroke-width="2" stroke-dasharray="8 8"/>
    <circle cx="74" cy="74" r="28" fill="#ffca28"/>
    <circle cx="326" cy="74" r="28" fill="#ffca28"/>
    <path d="M92 68h216" stroke="#ffd54f" stroke-width="6" stroke-linecap="round" opacity="0.6"/>
    <text x="200" y="118" font-family="Arial, Helvetica, sans-serif" font-size="28" font-weight="700" text-anchor="middle" fill="#5d4037">Certificate</text>
    <text x="200" y="154" font-family="Arial, Helvetica, sans-serif" font-size="17" text-anchor="middle" fill="#795548">Participation / Award / Medal</text>
    <path d="M130 186h140" stroke="#8d6e63" stroke-width="3" stroke-linecap="round"/>
    <path d="M150 186l-14 28 24-8 12 28 12-28 24 8-14-28" fill="#ef5350"/>
    <path d="M250 186l14 28-24-8-12 28-12-28-24 8 14-28" fill="#ef5350"/>
  </g>
</svg>