<svg xmlns="http://www.w3.org/2000/svg" width="600" height="400" viewBox="0 0 600 400">
  <defs>
    <linearGradient id="g3" x1="0" y1="0" x2="1" y2="1">
      <stop offset="0%" stop-color="#dff7df"/>
      <stop offset="100%" stop-color="#7fcf8f"/>
    </linearGradient>
    <filter id="shadow" x="-20%" y="-20%" width="140%" height="140%">
      <feDropShadow dx="0" dy="10" stdDeviation="12" flood-color="#14532d" flood-opacity="0.18"/>
    </filter>
  </defs>
  <rect width="600" height="400" rx="28" fill="url(#g3)"/>
  <circle cx="500" cy="84" r="46" fill="#ffffff55"/>
  <g filter="url(#shadow)">
    <rect x="104" y="82" width="392" height="240" rx="22" fill="#ffffffef" stroke="#2e7d32" stroke-width="4"/>
    <rect x="132" y="112" width="336" height="24" rx="10" fill="#c8e6c9"/>
    <rect x="132" y="152" width="220" height="16" rx="8" fill="#a5d6a7"/>
    <rect x="132" y="180" width="276" height="16" rx="8" fill="#a5d6a7"/>
    <rect x="132" y="208" width="194" height="16" rx="8" fill="#a5d6a7"/>
    <rect x="132" y="236" width="236" height="16" rx="8" fill="#a5d6a7"/>
    <circle cx="430" cy="202" r="54" fill="#66bb6a"/>
    <path d="M430 162c-17 18-26 36-26 55 0 17 8 31 26 42 18-11 26-25 26-42 0-19-9-37-26-55z" fill="#ffffffdc"/>
    <path d="M136 98h328" stroke="#2e7d32" stroke-width="6" stroke-linecap="round" opacity="0.25"/>
  </g>
  <text x="300" y="352" font-family="Arial, Helvetica, sans-serif" font-size="28" font-weight="700" text-anchor="middle" fill="#1b5e20">Climate Change Awareness Website</text>
</svg>