<svg xmlns="http://www.w3.org/2000/svg" width="600" height="400" viewBox="0 0 600 400">
  <defs>
    <linearGradient id="g2" x1="0" y1="0" x2="1" y2="1">
      <stop offset="0%" stop-color="#ffe6bf"/>
      <stop offset="100%" stop-color="#ffb347"/>
    </linearGradient>
    <filter id="shadow" x="-20%" y="-20%" width="140%" height="140%">
      <feDropShadow dx="0" dy="10" stdDeviation="12" flood-color="#7c2d12" flood-opacity="0.18"/>
    </filter>
  </defs>
  <rect width="600" height="400" rx="28" fill="url(#g2)"/>
  <circle cx="98" cy="86" r="28" fill="#fff7"/>
  <g filter="url(#shadow)">
    <rect x="90" y="92" width="420" height="220" rx="26" fill="#fffaf1" stroke="#ff8f00" stroke-width="4"/>
    <rect x="126" y="126" width="112" height="76" rx="16" fill="#ff7043"/>
    <rect x="248" y="126" width="112" height="76" rx="16" fill="#42a5f5"/>
    <rect x="370" y="126" width="72" height="76" rx="16" fill="#66bb6a"/>
    <circle cx="224" cy="250" r="28" fill="#5d4037"/>
    <path d="M184 296c28-22 86-22 114 0" fill="none" stroke="#5d4037" stroke-width="10" stroke-linecap="round"/>
    <path d="M228 214v40" stroke="#5d4037" stroke-width="8" stroke-linecap="round"/>
    <path d="M142 160h36" stroke="#ffffff" stroke-width="10" stroke-linecap="round" opacity="0.8"/>
    <path d="M264 160h36" stroke="#ffffff" stroke-width="10" stroke-linecap="round" opacity="0.8"/>
    <path d="M386 160h24" stroke="#ffffff" stroke-width="10" stroke-linecap="round" opacity="0.8"/>
  </g>
  <text x="300" y="352" font-family="Arial, Helvetica, sans-serif" font-size="28" font-weight="700" text-anchor="middle" fill="#4e342e">Scratch Game: Temple Adventure</text>
</svg>