<svg xmlns="http://www.w3.org/2000/svg" width="600" height="400" viewBox="0 0 600 400">
  <defs>
    <linearGradient id="g1" x1="0" y1="0" x2="1" y2="1">
      <stop offset="0%" stop-color="#9be7ff"/>
      <stop offset="100%" stop-color="#4bb3fd"/>
    </linearGradient>
    <linearGradient id="panel" x1="0" y1="0" x2="0" y2="1">
      <stop offset="0%" stop-color="#ffffff" stop-opacity="0.96"/>
      <stop offset="100%" stop-color="#eaf8ff" stop-opacity="0.92"/>
    </linearGradient>
    <filter id="shadow" x="-20%" y="-20%" width="140%" height="140%">
      <feDropShadow dx="0" dy="10" stdDeviation="12" flood-color="#0c4a6e" flood-opacity="0.18"/>
    </filter>
  </defs>
  <rect width="600" height="400" rx="28" fill="url(#g1)"/>
  <circle cx="486" cy="92" r="56" fill="#ffffff55"/>
  <circle cx="506" cy="86" r="10" fill="#ffffffaa"/>
  <path d="M78 286c94-64 170-84 250-84 68 0 130 16 194 46v72H78z" fill="#b7e3b2" opacity="0.95"/>
  <path d="M88 285c86-45 160-60 236-60 66 0 126 11 190 31" fill="none" stroke="#7cc36c" stroke-width="10" stroke-linecap="round" opacity="0.7"/>
  <g filter="url(#shadow)">
    <rect x="108" y="142" width="384" height="128" rx="22" fill="url(#panel)"/>
    <rect x="142" y="186" width="114" height="48" rx="12" fill="#0288d1"/>
    <circle cx="256" cy="198" r="28" fill="#1b5e20" opacity="0.9"/>
    <path d="M256 136c0-31 25-56 56-56s56 25 56 56" fill="none" stroke="#1b5e20" stroke-width="8" stroke-linecap="round"/>
    <path d="M286 267c0 38 28 58 28 58s28-20 28-58" fill="none" stroke="#2e7d32" stroke-width="10" stroke-linecap="round"/>
    <path d="M314 237c0 14 12 26 12 26s12-12 12-26" fill="none" stroke="#2e7d32" stroke-width="8" stroke-linecap="round"/>
    <rect x="348" y="175" width="110" height="66" rx="14" fill="#ffffff" stroke="#1d4ed8" stroke-width="4"/>
    <path d="M366 210h72" stroke="#1d4ed8" stroke-width="6" stroke-linecap="round"/>
    <path d="M366 195h72" stroke="#1d4ed8" stroke-width="6" stroke-linecap="round" opacity="0.5"/>
  </g>
  <text x="300" y="352" font-family="Arial, Helvetica, sans-serif" font-size="28" font-weight="700" text-anchor="middle" fill="#0f172a">Smart Irrigation System</text>
</svg>